<?xml version="1.0" standalone="no"?><!DOCTYPE svg PUBLIC "-//W3C//DTD SVG 1.1//EN" "http://www.w3.org/Graphics/SVG/1.1/DTD/svg11.dtd"><svg t="1502071393737" class="icon" style="" viewBox="0 0 1024 1024" version="1.1" xmlns="http://www.w3.org/2000/svg" p-id="2412" xmlns:xlink="http://www.w3.org/1999/xlink" width="200" height="200"><defs><style type="text/css"></style></defs><path d="M512 938.666667c6.037333 0 11.605333-2.986667 15.296-8.149333 15.018667-21.12 33.557333-44.394667 67.306667-71.488 25.216-20.245333 71.744-41.344 88.597333-46.528 181.12-56.256 298.154667-192.576 298.154667-347.349333 0-99.776-48.810667-194.538667-137.450667-266.858667-89.301333-72.853333-207.168-112.981333-331.882667-112.981333s-242.581333 40.128-331.882667 112.981333c-88.64 72.32-137.450667 167.082667-137.450667 266.858667 0 154.794667 117.418667 291.221333 299.136 347.605333 10.346667 3.178667 41.92 12.842667 71.146667 54.698667 3.648 5.248 9.28 8.256 15.402667 8.256 4.117333 0 8.042667-1.365333 11.349333-4.010667 8.576-6.762667 10.368-19.669333 3.989333-28.778667-36.928-52.906667-78.528-65.664-92.181333-69.845333-164.330667-51.029333-270.485333-171.904-270.485333-307.946667 0-89.002667 44.928-173.610667 126.570667-238.165333 82.005333-64.896 190.122667-100.608 304.426667-100.608s222.421333 35.712 304.426667 100.608c81.621333 64.554667 126.570667 149.162667 126.570667 238.165333 0 136.042667-106.176 256.917333-270.485333 307.946667-20.330667 6.314667-71.445333 29.461333-100.928 53.12-37.610667 30.186667-58.944 57.130667-74.837333 79.488-6.421333 9.066667-4.736 21.973333 3.776 28.821333C503.850667 937.237333 507.818667 938.666667 512 938.666667z" p-id="2413" fill="#ffffff"></path><path d="M512 469.333333m-42.666667 0a2 2 0 1 0 85.333333 0 2 2 0 1 0-85.333333 0Z" p-id="2414" fill="#ffffff"></path><path d="M725.333333 469.333333m-42.666667 0a2 2 0 1 0 85.333333 0 2 2 0 1 0-85.333333 0Z" p-id="2415" fill="#ffffff"></path><path d="M298.666667 469.333333m-42.666667 0a2 2 0 1 0 85.333333 0 2 2 0 1 0-85.333333 0Z" p-id="2416" fill="#ffffff"></path></svg>