<?xml version="1.0" encoding="utf-8"?>
<!-- Generator: Adobe Illustrator 21.0.0, SVG Export Plug-In . SVG Version: 6.00 Build 0)  -->
<svg version="1.1" id="图层_1" xmlns="http://www.w3.org/2000/svg" xmlns:xlink="http://www.w3.org/1999/xlink" x="0px" y="0px"
	 viewBox="0 0 200 200" style="enable-background:new 0 0 200 200;" xml:space="preserve">
<style type="text/css">
	.st0{fill:#FFD000;}
</style>
<path class="st0" d="M150.5,37c0-6.6-5.4-12-12-12H87.2c-5,0-9.5,3.2-11.2,7.8l-25.7,69.3c-1.4,3.7-0.8,7.8,1.4,11
	c2.2,3.2,5.9,5.1,9.8,5.1h8.9l-13.9,40.9c-1.9,5.4,0.4,11.5,5.4,14.3c1.8,1,3.8,1.6,5.9,1.6c3.5,0,6.9-1.6,9.2-4.4l62.8-76.8
	c3-3.5,3.7-8.6,1.7-12.8c-2-4.2-6.2-6.9-10.9-6.9h-3.2L148.2,44C149.7,42,150.5,39.5,150.5,37z M140,38.2l-31.4,45.9h22.2
	c0.8,0,1.5,0.5,1.8,1.1c0.3,0.7,0.2,1.5-0.3,2.2l-62.8,76.8c-0.6,0.8-1.7,1-2.5,0.5c-0.8-0.5-1.2-1.4-0.9-2.4l18.3-54.2H61.5
	c-0.6,0-1.3-0.3-1.6-0.8c-0.4-0.5-0.5-1.2-0.2-1.8l25.7-69.3c0.3-0.8,1-1.3,1.8-1.3h51.3c1.1,0,2,0.9,2,2
	C140.5,37.4,140.3,37.8,140,38.2z"/>
</svg>
