<?xml version="1.0" standalone="no"?><!DOCTYPE svg PUBLIC "-//W3C//DTD SVG 1.1//EN" "http://www.w3.org/Graphics/SVG/1.1/DTD/svg11.dtd"><svg t="1501554358371" class="icon" style="" viewBox="0 0 1024 1024" version="1.1" xmlns="http://www.w3.org/2000/svg" p-id="2381" xmlns:xlink="http://www.w3.org/1999/xlink" width="200" height="200"><defs><style type="text/css"></style></defs><path d="M743.413534 426.870134c-46.933939 0-85.127819-38.193881-85.127819-85.127819s38.193881-85.127819 85.127819-85.127819c46.933939 0 85.127819 38.193881 85.127819 85.127819S790.348496 426.870134 743.413534 426.870134zM743.413534 280.936437c-33.537837 0-60.805878 27.279297-60.805878 60.805878s27.26804 60.805878 60.805878 60.805878 60.805878-27.279297 60.805878-60.805878S776.952394 280.936437 743.413534 280.936437z" p-id="2382" fill="#ffd000"></path><path d="M912.965138 388.296607c0 20.186761-12.987802 51.515281-27.240411 65.817008l-369.017518 369.065614c-4.621251 4.573155-10.70276 7.052626-17.220197 7.052626-6.615675 0-12.69616-2.529613-17.268292-7.052626L283.455817 624.369254c-4.572132-4.52506-7.004531-10.604522-7.004531-17.122983 0-6.51846 2.480494-12.647041 7.004531-17.220197l369.017518-369.017518c14.252609-14.252609 45.677319-27.28953 65.865103-27.28953l170.255639 0c13.377682 0 24.321942 10.896164 24.321942 24.321942L912.916019 388.296607 912.965138 388.296607 912.965138 388.296607 912.965138 388.296607zM888.643196 145.07412 718.387557 145.07412c-33.419134 0-76.56684 17.8526-100.208283 41.494043L249.161756 555.633776c-13.765515 13.765515-21.306258 32.05609-21.306258 51.612495 0 19.554358 7.540743 37.844933 21.306258 51.66059l126.573767 126.524648-53.314253 30.743188c-5.54632 3.210112-12.063757 4.036943-18.435884 2.38328-6.275937-1.653663-11.528568-5.691629-14.787798-11.286044L114.270557 504.265852c-6.664793-11.625782-2.675946-26.510794 8.902764-33.223682l388.474662-224.299509c11.625782-6.713912 15.614629-21.549805 8.949836-33.223682-6.760984-11.626805-21.647019-15.615653-33.272801-8.902764L98.850355 428.9147c-16.830317 9.729595-28.894074 25.441439-33.905204 44.315298-5.107321 18.87386-2.480494 38.526455 7.199982 55.357795l174.926008 303.007105c9.776667 16.830317 25.440415 28.895097 44.363394 33.9533 6.274914 1.701758 12.745279 2.529613 19.020192 2.529613 12.69616 0 25.051559-3.307326 36.288484-9.777691l64.600297-37.21253 36.58115 36.532031c13.765515 13.766538 32.007995 21.306258 51.563376 21.306258 19.603477 0 37.844933-7.587815 51.611471-21.306258l369.017518-368.968399c23.689538-23.737634 41.494043-66.789149 41.494043-100.304474L961.611068 218.090087c0-40.229237-32.689517-72.966848-72.966848-72.966848L888.644219 145.07412 888.643196 145.07412 888.643196 145.07412z" p-id="2383" fill="#ffd000"></path></svg>