<?xml version="1.0" encoding="utf-8"?>
<!-- Generator: Adobe Illustrator 21.0.0, SVG Export Plug-In . SVG Version: 6.00 Build 0)  -->
<svg version="1.1" id="图层_1" xmlns="http://www.w3.org/2000/svg" xmlns:xlink="http://www.w3.org/1999/xlink" x="0px" y="0px"
	 viewBox="0 0 200 200" style="enable-background:new 0 0 200 200;" xml:space="preserve">
<style type="text/css">
	.st0{fill:#FFD000;}
</style>
<path class="st0" d="M144.9,24.2c1.2,0,2.2,1,2.2,2.2c0,0.5-0.1,0.9-0.4,1.3l-0.1,0.1l0,0.1l-30.4,44.5l-6.4,9.4h11.4h14.8
	c0.8,0,1.6,0.5,2,1.2c0.3,0.8,0.2,1.7-0.3,2.3l0,0l0,0L64.1,175c-0.4,0.5-1,0.8-1.7,0.8c-0.4,0-0.7-0.1-1-0.3l0,0l0,0
	c-0.9-0.5-1.3-1.6-1-2.6l0,0l0,0l18.8-55.6l2.7-7.9h-8.4l-18.6,0c-0.7,0-1.4-0.3-1.8-0.9c-0.4-0.6-0.5-1.3-0.3-2l30-80.9l0,0l0,0
	c0.3-0.8,1.1-1.4,2-1.4H144.9 M144.9,18.2H85c-3.4,0-6.5,2.1-7.6,5.3l-30,80.9c-0.9,2.5-0.6,5.3,1,7.5c1.5,2.2,4,3.5,6.7,3.5h18.6
	L54.8,171c-1.3,3.7,0.3,7.8,3.7,9.7c1.2,0.7,2.6,1.1,4,1.1c2.4,0,4.7-1.1,6.3-2.9L142.2,89c2-2.4,2.5-5.8,1.2-8.7
	c-1.3-2.9-4.2-4.7-7.4-4.7h-14.8l30.4-44.5c1-1.4,1.6-3.1,1.6-4.8C153.1,21.8,149.4,18.2,144.9,18.2L144.9,18.2z"/>
</svg>
