<svg id="图层_1" data-name="图层 1" xmlns="http://www.w3.org/2000/svg" viewBox="0 0 494 556"><defs><style>.cls-1{fill:#fff;}</style></defs><title>order-center</title><path class="cls-1" d="M434.51,7H63C11,7,11,58.77,11,58.77V499.31s0,51.81,52.84,51.81H371.29L485,460.44V58.83S484.18,7,434.55,7Zm24.85,440.52L356.88,525.2H75c-38.43,0-38.43-38.87-38.43-38.87V71.75s0-38.87,38.43-38.87H420.92c38.43,0,38.43,38.87,38.43,38.87V447.49ZM100.67,292H395.3V317.9H100.67Zm0-103.63H395.3v25.91H100.67Zm0-103.63H241.58v25.91H100.67Zm333.07,298H318.41V499.31H344V408.61h89.67V382.71Z"/></svg>