<svg id="图层_1" data-name="图层 1" xmlns="http://www.w3.org/2000/svg" viewBox="0 0 981.14 981.14"><defs><style>.cls-1{fill:#edb628;}.cls-2{fill:none;stroke:#fcfcfc;stroke-miterlimit:10;stroke-width:60px;fill-rule:evenodd;}.cls-3{fill:#fafcfc;}</style></defs><title>未标题-2</title><circle class="cls-1" cx="490.57" cy="490.57" r="490.57"/><path class="cls-2" d="M661,981.94A342.7,342.7,0,0,1,623.42,984c-187.21,0-339-151.76-339-339s151.76-339,339-339,339,151.76,339,339" transform="translate(-148 -159.86)"/><rect class="cls-3" x="469.19" y="265.63" width="52" height="259.03" rx="12" ry="12"/><rect class="cls-3" x="591.78" y="547.13" width="49.23" height="281.03" rx="12" ry="12"/><rect class="cls-3" x="693.75" y="547.13" width="49.23" height="281.03" rx="12" ry="12"/><rect class="cls-3" x="794.55" y="547.13" width="49.23" height="281.03" rx="12" ry="12"/><rect class="cls-3" x="506.91" y="526.74" width="55.52" height="269.03" rx="12" ry="12" transform="translate(1047.93 -33.28) rotate(90)"/></svg>