<svg id="图层_1" data-name="图层 1" xmlns="http://www.w3.org/2000/svg" viewBox="0 0 1057.91 981.14"><defs><style>.cls-1{fill:#076b85;}.cls-2{fill:none;stroke:#fcfcfc;stroke-miterlimit:10;stroke-width:60px;fill-rule:evenodd;}.cls-3{fill:#fff;}</style></defs><title>未标题-9</title><circle class="cls-1" cx="490.57" cy="490.57" r="490.57"/><path class="cls-2" d="M574.2,918A342.7,342.7,0,0,1,536.66,920c-187.21,0-339-151.76-339-339s151.76-339,339-339,339,151.76,339,339" transform="translate(-57.09 -97.86)"/><rect class="cls-3" x="473.34" y="263.69" width="52" height="259.03" rx="12" ry="12"/><rect class="cls-3" x="420.16" y="462.79" width="55.52" height="269.03" rx="12" ry="12" transform="translate(988.13 51.53) rotate(90)"/><rect class="cls-3" x="1011.91" y="569.14" width="46" height="83" rx="23" ry="23"/><rect class="cls-3" x="686.91" y="520.14" width="47" height="82" rx="20" ry="20"/><rect class="cls-3" x="661.12" y="651.91" width="47" height="82" rx="20" ry="20" transform="translate(-346.53 589.2) rotate(-45)"/><rect class="cls-3" x="626.5" y="734.5" width="47" height="82" rx="20" ry="20" transform="translate(-182.59 1327.64) rotate(-90)"/><rect class="cls-3" x="660.41" y="817.38" width="47" height="82" rx="20" ry="20" transform="translate(503.46 1851.09) rotate(-135)"/><rect class="cls-3" x="743" y="852" width="47" height="82" rx="20" ry="20" transform="translate(1475.91 1688.14) rotate(-180)"/><rect class="cls-3" x="825.88" y="818.09" width="47" height="82" rx="20" ry="20" transform="translate(2000.36 768.09) rotate(135)"/><rect class="cls-3" x="860.5" y="735.5" width="47" height="82" rx="20" ry="20" transform="translate(1603.41 -205.36) rotate(90)"/><rect class="cls-3" x="826.59" y="652.62" width="47" height="82" rx="20" ry="20" transform="translate(682.36 -495.8) rotate(45)"/></svg>