<svg id="图层_1" data-name="图层 1" xmlns="http://www.w3.org/2000/svg" viewBox="0 0 511.13 592.29"><defs><style>.cls-1{fill:none;stroke:#fff;stroke-miterlimit:10;stroke-width:27px;}</style></defs><title>电话dh</title><path class="cls-1" d="M372.35,341.07c-17.56,12.93-34.94,26.74-50.43,42.11-20.42,20.28-18.13,36.39-12.87,63.47,14.87,76.61,58.69,142.92,110.73,199.55,42.75,46.52,90.07,89.58,142.52,122.44,27.9,17.47,37.27,25,67.86,38.58,41.68,18.52,75.42,20.14,84,17.1,6.38-2.26,17.84-8,22.44-12.55,9.32-9.29,18.24-19,26.87-28.92,13.43-15.44,33.61-35.42,23.17-57.63-6.26-13.32-23.74-22.17-35.42-30.48-14.63-10.4-29.36-20.69-44.5-30.34-8-5.09-20.7-15.87-30.78-16-14-.12-79.83,39.05-79.83,39.05s-52.67-37.09-100.5-93.62-57.05-71.42-57.05-71.42,44.91-55.72,41.92-70.56S409,339.83,398.9,335.07,372.35,341.07,372.35,341.07Z" transform="translate(-291.92 -246.75)"/><path class="cls-1" d="M668.86,505c27.83-25.54,45.33-61.65,45.68-101.82.68-78.24-64-142.24-144.39-142.93A147.21,147.21,0,0,0,466.26,301.4" transform="translate(-291.92 -246.75)"/><path class="cls-1" d="M624.18,454.24a73,73,0,0,0,23.92-53.33c.36-41-33.5-74.5-75.62-74.86a77.1,77.1,0,0,0-54.41,21.55" transform="translate(-291.92 -246.75)"/></svg>