<svg id="图层_1" data-name="图层 1" xmlns="http://www.w3.org/2000/svg" viewBox="0 0 559.71 569.41"><defs><style>.cls-1{fill:none;stroke:#fff;stroke-miterlimit:10;stroke-width:27px;}</style></defs><title>主页</title><path class="cls-1" d="M373.21,555.95V773.22c0,12.66,14.33,22.94,32,22.94H485.3V674.68c0-20.08,21.18-36.34,47.33-36.34h75.11c26.13,0,47.33,16.26,47.33,36.34V796.16h80.1c17.66,0,32-10.28,32-22.94V555.95" transform="translate(-290.33 -240.26)"/><path class="cls-1" d="M373.21,512.58H305c-1.25,0-1.54-.71-.64-1.58L568.57,254.41a2.36,2.36,0,0,1,3.25,0L836,511c.89.87.61,1.58-.64,1.58H759.27" transform="translate(-290.33 -240.26)"/><line class="cls-1" x1="168.67" y1="272.32" x2="382.55" y2="272.32"/></svg>