<svg id="图层_1" data-name="图层 1" xmlns="http://www.w3.org/2000/svg" viewBox="0 0 634 567.14"><defs><style>.cls-1,.cls-3{fill:#fff;}.cls-1{fill-rule:evenodd;}.cls-2{fill:#fc0;}</style></defs><title>未标题-10</title><path class="cls-1" d="M800,261.94H412.86c-54.24,0-54.24,54-54.24,54V775.06s0,54,55.07,54H734.11L852.6,734.55V316s-.83-54-52.56-54ZM825.9,721.05l-106.81,81H425.37c-40.05,0-40.05-40.51-40.05-40.51V329.46s0-40.51,40.05-40.51H785.84c40.05,0,40.05,40.51,40.05,40.51v391.6ZM452.07,559H759.14v27H452.07V559Zm0-108H759.14v27H452.07V451Zm0-108H598.93v27H452.07V343ZM799.19,653.53H679V775.06h26.7V680.54h93.45v-27Z" transform="translate(-248 -261.94)"/><rect class="cls-2" y="22.06" width="634" height="402" rx="20" ry="20"/><circle class="cls-3" cx="156.31" cy="223.67" r="36"/><circle class="cls-3" cx="319.31" cy="224.67" r="36"/><circle class="cls-3" cx="483.31" cy="221.67" r="36"/><path class="cls-2" d="M417.48,661.11A30.7,30.7,0,0,0,387.88,692l1.23,96c.21,16.5,10.1,20.63,22,9.18L534.9,677.82c11.88-11.45,8.1-20.42-8.39-19.93Z" transform="translate(-248 -261.94)"/></svg>