<svg id="图层_1" data-name="图层 1" xmlns="http://www.w3.org/2000/svg" viewBox="0 0 493.98 567.14"><defs><style>.cls-1{fill:#fff;fill-rule:evenodd;}</style></defs><title>订单</title><path class="cls-1" d="M800,261.94H412.86c-54.24,0-54.24,54-54.24,54V775.06s0,54,55.07,54H734.11L852.6,734.55V316s-.83-54-52.56-54ZM825.9,721.05l-106.81,81H425.37c-40.05,0-40.05-40.51-40.05-40.51V329.46s0-40.51,40.05-40.51H785.84c40.05,0,40.05,40.51,40.05,40.51v391.6ZM452.07,559H759.14v27H452.07V559Zm0-108H759.14v27H452.07V451Zm0-108H598.93v27H452.07V343ZM799.19,653.53H679V775.06h26.7V680.54h93.45v-27Z" transform="translate(-358.62 -261.94)"/></svg>